<?xml version="1.0" standalone="no"?>
<!DOCTYPE svg PUBLIC "-//W3C//DTD SVG 20010904//EN"
 "http://www.w3.org/TR/2001/REC-SVG-20010904/DTD/svg10.dtd">
<svg version="1.0" xmlns="http://www.w3.org/2000/svg"
 width="640.000000pt" height="640.000000pt" viewBox="0 0 640.000000 640.000000"
 preserveAspectRatio="xMidYMid meet">
<metadata>
Created by potrace 1.11, written by Peter Selinger 2001-2013
</metadata>
<g transform="translate(0.000000,640.000000) scale(0.100000,-0.100000)"
fill="#000000" stroke="none">
<path d="M2907 5736 c-28 -30 -33 -77 -10 -102 10 -11 65 -58 123 -104 58 -47
107 -87 110 -90 3 -3 30 -25 60 -50 30 -25 60 -49 67 -55 7 -5 18 -15 25 -20
99 -79 228 -188 228 -193 0 -4 -28 -18 -62 -32 -35 -13 -67 -27 -73 -31 -5 -3
-21 -10 -35 -14 -14 -4 -52 -20 -85 -35 -33 -15 -120 -51 -194 -81 -159 -64
-183 -83 -177 -136 5 -47 14 -53 190 -126 78 -32 160 -67 183 -78 24 -10 45
-19 48 -19 3 0 24 -8 48 -19 23 -10 69 -30 102 -43 67 -28 61 -13 64 -163 1
-27 2 -66 2 -85 1 -19 1 -39 0 -45 -4 -70 -5 -135 -1 -135 4 0 4 -101 0 -120
0 -3 0 -66 0 -140 1 -74 1 -142 1 -150 -1 -8 -1 -31 0 -50 1 -19 1 -39 0 -45
-4 -70 -5 -135 -1 -135 3 0 5 -48 6 -108 0 -100 9 -218 19 -266 2 -12 7 -37
10 -56 31 -191 105 -406 207 -605 104 -202 206 -342 373 -515 80 -82 99 -100
195 -178 36 -29 70 -57 77 -62 6 -5 26 -18 45 -30 32 -19 32 -20 8 -21 -97 -2
-438 -18 -510 -24 -25 -2 -94 -6 -155 -10 -60 -4 -128 -8 -150 -11 -22 -2 -67
-7 -100 -9 -126 -9 -201 -16 -240 -20 -22 -3 -69 -7 -105 -10 -36 -3 -78 -7
-95 -9 -29 -5 -102 -13 -175 -20 -72 -8 -156 -17 -180 -21 -79 -11 -110 -15
-160 -21 -30 -3 -66 -8 -80 -10 -14 -2 -46 -6 -72 -8 -26 -3 -51 -7 -55 -9 -4
-3 -35 -8 -68 -11 -33 -3 -71 -8 -85 -11 -13 -2 -42 -7 -65 -10 -22 -3 -51 -8
-65 -10 -29 -5 -68 -11 -125 -20 -23 -3 -50 -7 -60 -9 -11 -2 -40 -7 -65 -11
-25 -4 -54 -9 -65 -12 -11 -2 -36 -6 -55 -9 -19 -2 -57 -9 -85 -14 -27 -5 -63
-12 -80 -15 -16 -3 -39 -7 -50 -9 -11 -2 -40 -7 -65 -11 -53 -9 -78 -13 -105
-19 -11 -3 -69 -14 -130 -26 -60 -12 -119 -24 -130 -26 -11 -2 -33 -6 -50 -9
-16 -2 -48 -9 -70 -14 -22 -5 -52 -12 -68 -15 -15 -2 -35 -7 -45 -10 -9 -3
-34 -7 -56 -11 -21 -3 -42 -7 -46 -10 -4 -3 -25 -7 -45 -11 -45 -7 -56 -9
-120 -24 -27 -6 -61 -14 -75 -16 -14 -3 -33 -7 -42 -10 -10 -3 -30 -8 -45 -10
-64 -12 -295 -65 -317 -73 -29 -12 -86 -68 -86 -87 0 -8 -4 -14 -9 -14 -16 0
-6 -113 12 -147 9 -18 34 -45 54 -60 l36 -28 2596 0 c1428 0 2619 4 2646 8 28
5 68 13 90 18 22 5 49 12 60 14 30 7 175 61 215 81 355 174 613 511 668 874 8
56 9 279 0 340 -15 108 -73 299 -98 324 -6 6 -10 18 -10 28 0 10 -4 18 -10 18
-5 0 -9 4 -7 8 3 11 -94 162 -105 162 -4 0 -8 6 -8 13 0 15 -108 127 -176 182
-98 81 -178 125 -728 400 -494 247 -565 285 -610 329 -28 28 -59 62 -70 75
-19 25 -64 121 -73 156 -6 22 -13 181 -13 265 1 30 0 73 -1 95 -1 22 -1 47 0
55 1 8 1 28 1 44 0 25 2 28 25 24 14 -3 25 -2 25 1 0 7 128 4 148 -4 6 -2 12
-1 12 3 0 4 62 6 137 4 153 -3 146 -3 206 -1 54 1 94 -7 115 -23 9 -7 23 -18
32 -25 29 -22 165 -134 209 -171 75 -64 142 -93 226 -98 40 -2 77 -4 82 -5 4
-1 13 0 18 1 6 1 30 1 55 1 55 -2 55 -2 110 0 25 0 50 0 55 -1 12 -3 12 -3 57
6 18 3 38 7 44 8 7 1 18 7 25 13 8 6 24 13 35 17 34 10 104 86 131 141 13 28
28 57 33 65 5 8 37 73 71 143 71 149 82 207 54 302 -14 48 -43 105 -65 125 -3
3 -17 21 -30 40 -13 19 -27 37 -30 40 -17 16 -90 119 -90 128 0 5 -4 12 -9 14
-9 3 -76 87 -111 138 -14 20 -89 122 -108 145 -4 6 -28 37 -52 70 -25 33 -50
66 -57 75 -7 8 -66 88 -133 177 -103 138 -144 184 -205 232 -6 4 -32 15 -59
24 -44 15 -161 17 -1278 17 l-1229 0 -22 -24z m2218 -697 c116 -28 213 -55
217 -58 19 -17 -66 -135 -106 -147 -12 -4 -24 -11 -27 -17 -4 -5 -38 -11 -75
-12 -82 -3 -135 17 -189 73 -40 41 -56 82 -59 150 -3 55 1 72 17 67 7 -2 107
-27 222 -56z"/>
<path d="M1538 4790 c-79 -14 -150 -41 -220 -84 -91 -55 -1292 -1241 -1308
-1292 -23 -68 1 -140 59 -182 37 -27 47 -29 103 -26 35 2 70 5 78 7 14 4 52
11 112 22 16 3 38 7 50 10 13 2 86 16 163 29 77 14 151 28 165 31 14 3 54 10
89 16 36 5 67 12 71 14 3 2 24 6 46 9 21 3 48 7 59 9 11 3 40 8 65 12 25 4 54
9 65 12 11 2 33 6 49 8 15 2 35 7 45 9 9 3 39 8 66 12 28 3 57 10 66 14 8 5
24 7 35 6 10 -2 41 3 69 10 27 7 66 15 85 18 45 7 73 12 200 36 161 30 164 30
154 21 -7 -8 -453 -344 -550 -416 -15 -11 -42 -31 -60 -45 -17 -14 -43 -33
-56 -42 -12 -9 -32 -24 -43 -33 -11 -8 -60 -46 -110 -83 -54 -41 -97 -82 -107
-103 -35 -67 -2 -175 65 -211 12 -6 54 -13 92 -14 39 -2 72 -4 75 -5 3 -1 9 0
15 1 5 1 32 1 60 1 27 0 71 0 98 0 26 0 54 0 62 0 8 0 35 0 60 0 25 0 52 0 60
0 8 0 35 0 60 0 25 0 52 0 60 0 8 0 35 0 60 0 25 0 52 0 60 0 8 0 35 0 60 0
25 0 52 0 60 0 8 0 35 0 60 0 25 0 52 0 60 0 8 0 35 0 60 0 25 0 52 0 60 0 8
0 35 0 60 0 71 0 77 0 129 -1 26 -1 50 1 53 4 2 2 18 0 34 -4 16 -5 31 -5 33
-1 2 3 34 4 70 1 36 -3 66 -3 66 0 0 6 129 2 148 -5 6 -2 12 -1 12 3 0 7 126
5 148 -3 6 -2 12 -1 12 3 0 7 126 5 148 -3 6 -2 12 -1 12 3 0 4 19 6 42 5 81
-3 103 -3 160 -2 l57 2 -19 51 c-20 54 -43 132 -66 231 -20 83 -22 94 -29 145
-3 25 -8 51 -10 58 -9 24 -19 174 -20 274 0 54 -4 98 -8 98 -5 0 -5 4 -2 10 3
5 5 38 5 72 0 35 -1 72 0 83 0 11 -1 43 -1 70 -1 28 -1 57 0 65 5 58 -1 96
-17 108 -9 7 -27 22 -40 32 -12 11 -25 20 -27 20 -3 0 -11 5 -18 10 -25 21
-176 132 -397 293 -74 54 -142 103 -150 110 -8 7 -56 41 -105 77 -50 35 -94
68 -100 72 -5 5 -35 26 -65 48 -30 22 -59 43 -65 48 -5 4 -25 19 -44 32 -19
14 -42 30 -50 37 -125 95 -209 143 -291 168 -65 19 -225 27 -292 15z"/>
</g>
</svg>
