<svg version="1" xmlns="http://www.w3.org/2000/svg" width="853.333" height="853.333" viewBox="0 0 640.000000 640.000000"><path d="M290.7 66.4c-2.8 3-3.3 7.7-1 10.2 1 1.1 6.5 5.8 12.3 10.4 5.8 4.7 10.7 8.7 11 9 .3.3 3 2.5 6 5s6 4.9 6.7 5.5c.7.5 1.8 1.5 2.5 2 9.9 7.9 22.8 18.8 22.8 19.3 0 .4-2.8 1.8-6.2 3.2-3.5 1.3-6.7 2.7-7.3 3.1-.5.3-2.1 1-3.5 1.4-1.4.4-5.2 2-8.5 3.5s-12 5.1-19.4 8.1c-15.9 6.4-18.3 8.3-17.7 13.6.5 4.7 1.4 5.3 19 12.6 7.8 3.2 16 6.7 18.3 7.8 2.4 1 4.5 1.9 4.8 1.9.3 0 2.4.8 4.8 1.9 2.3 1 6.9 3 10.2 4.3 6.7 2.8 6.1 1.3 6.4 16.3.1 2.7.2 6.6.2 8.5.1 1.9.1 3.9 0 4.5-.4 7-.5 13.5-.1 13.5s.4 10.1 0 12v14c.1 7.4.1 14.2.1 15-.1.8-.1 3.1 0 5s.1 3.9 0 4.5c-.4 7-.5 13.5-.1 13.5.3 0 .5 4.8.6 10.8 0 10 .9 21.8 1.9 26.6.2 1.2.7 3.7 1 5.6 3.1 19.1 10.5 40.6 20.7 60.5 10.4 20.2 20.6 34.2 37.3 51.5 8 8.2 9.9 10 19.5 17.8 3.6 2.9 7 5.7 7.7 6.2.6.5 2.6 1.8 4.5 3 3.2 1.9 3.2 2 .8 2.1-9.7.2-43.8 1.8-51 2.4-2.5.2-9.4.6-15.5 1-6 .4-12.8.8-15 1.1-2.2.2-6.7.7-10 .9-12.6.9-20.1 1.6-24 2-2.2.3-6.9.7-10.5 1-3.6.3-7.8.7-9.5.9-2.9.5-10.2 1.3-17.5 2-7.2.8-15.6 1.7-18 2.1-7.9 1.1-11 1.5-16 2.1-3 .3-6.6.8-8 1-1.4.2-4.6.6-7.2.8-2.6.3-5.1.7-5.5.9-.4.3-3.5.8-6.8 1.1-3.3.3-7.1.8-8.5 1.1-1.3.2-4.2.7-6.5 1-2.2.3-5.1.8-6.5 1-2.9.5-6.8 1.1-12.5 2-2.3.3-5 .7-6 .9-1.1.2-4 .7-6.5 1.1-2.5.4-5.4.9-6.5 1.2-1.1.2-3.6.6-5.5.9-1.9.2-5.7.9-8.5 1.4-2.7.5-6.3 1.2-8 1.5-1.6.3-3.9.7-5 .9-1.1.2-4 .7-6.5 1.1-5.3.9-7.8 1.3-10.5 1.9-1.1.3-6.9 1.4-13 2.6-6 1.2-11.9 2.4-13 2.6-1.1.2-3.3.6-5 .9-1.6.2-4.8.9-7 1.4-2.2.5-5.2 1.2-6.8 1.5-1.5.2-3.5.7-4.5 1-.9.3-3.4.7-5.6 1.1-2.1.3-4.2.7-4.6 1-.4.3-2.5.7-4.5 1.1-4.5.7-5.6.9-12 2.4-2.7.6-6.1 1.4-7.5 1.6-1.4.3-3.3.7-4.2 1-1 .3-3 .8-4.5 1-6.4 1.2-29.5 6.5-31.7 7.3-2.9 1.2-8.6 6.8-8.6 8.7 0 .8-.4 1.4-.9 1.4-1.6 0-.6 11.3 1.2 14.7.9 1.8 3.4 4.5 5.4 6l3.6 2.8h259.6c142.8 0 261.9-.4 264.6-.8 2.8-.5 6.8-1.3 9-1.8s4.9-1.2 6-1.4c3-.7 17.5-6.1 21.5-8.1 35.5-17.4 61.3-51.1 66.8-87.4.8-5.6.9-27.9 0-34-1.5-10.8-7.3-29.9-9.8-32.4-.6-.6-1-1.8-1-2.8 0-1-.4-1.8-1-1.8-.5 0-.9-.4-.7-.8.3-1.1-9.4-16.2-10.5-16.2-.4 0-.8-.6-.8-1.3 0-1.5-10.8-12.7-17.6-18.2-9.8-8.1-17.8-12.5-72.8-40-49.4-24.7-56.5-28.5-61-32.9-2.8-2.8-5.9-6.2-7-7.5-1.9-2.5-6.4-12.1-7.3-15.6-.6-2.2-1.3-18.1-1.3-26.5.1-3 0-7.3-.1-9.5s-.1-4.7 0-5.5c.1-.8.1-2.8.1-4.4 0-2.5.2-2.8 2.5-2.4 1.4.3 2.5.2 2.5-.1 0-.7 12.8-.4 14.8.4.6.2 1.2.1 1.2-.3s6.2-.6 13.7-.4c15.3.3 14.6.3 20.6.1 5.4-.1 9.4.7 11.5 2.3.9.7 2.3 1.8 3.2 2.5 2.9 2.2 16.5 13.4 20.9 17.1 7.5 6.4 14.2 9.3 22.6 9.8 4 .2 7.7.4 8.2.5.4.1 1.3 0 1.8-.1.6-.1 3-.1 5.5-.1 5.5.2 5.5.2 11 0 2.5 0 5 0 5.5.1 1.2.3 1.2.3 5.7-.6 1.8-.3 3.8-.7 4.4-.8.7-.1 1.8-.7 2.5-1.3.8-.6 2.4-1.3 3.5-1.7 3.4-1 10.4-8.6 13.1-14.1 1.3-2.8 2.8-5.7 3.3-6.5.5-.8 3.7-7.3 7.1-14.3 7.1-14.9 8.2-20.7 5.4-30.2-1.4-4.8-4.3-10.5-6.5-12.5-.3-.3-1.7-2.1-3-4s-2.7-3.7-3-4c-1.7-1.6-9-11.9-9-12.8 0-.5-.4-1.2-.9-1.4-.9-.3-7.6-8.7-11.1-13.8-1.4-2-8.9-12.2-10.8-14.5-.4-.6-2.8-3.7-5.2-7-2.5-3.3-5-6.6-5.7-7.5-.7-.8-6.6-8.8-13.3-17.7-10.3-13.8-14.4-18.4-20.5-23.2-.6-.4-3.2-1.5-5.9-2.4-4.4-1.5-16.1-1.7-127.8-1.7H292.9l-2.2 2.4zm221.8 69.7c11.6 2.8 21.3 5.5 21.7 5.8 1.9 1.7-6.6 13.5-10.6 14.7-1.2.4-2.4 1.1-2.7 1.7-.4.5-3.8 1.1-7.5 1.2-8.2.3-13.5-1.7-18.9-7.3-4-4.1-5.6-8.2-5.9-15-.3-5.5.1-7.2 1.7-6.7.7.2 10.7 2.7 22.2 5.6z"/><path d="M153.8 161c-7.9 1.4-15 4.1-22 8.4C122.7 174.9 2.6 293.5 1 298.6c-2.3 6.8.1 14 5.9 18.2 3.7 2.7 4.7 2.9 10.3 2.6 3.5-.2 7-.5 7.8-.7 1.4-.4 5.2-1.1 11.2-2.2 1.6-.3 3.8-.7 5-1 1.3-.2 8.6-1.6 16.3-2.9 7.7-1.4 15.1-2.8 16.5-3.1 1.4-.3 5.4-1 8.9-1.6 3.6-.5 6.7-1.2 7.1-1.4.3-.2 2.4-.6 4.6-.9 2.1-.3 4.8-.7 5.9-.9 1.1-.3 4-.8 6.5-1.2 2.5-.4 5.4-.9 6.5-1.2 1.1-.2 3.3-.6 4.9-.8 1.5-.2 3.5-.7 4.5-.9.9-.3 3.9-.8 6.6-1.2 2.8-.3 5.7-1 6.6-1.4.8-.5 2.4-.7 3.5-.6 1 .2 4.1-.3 6.9-1 2.7-.7 6.6-1.5 8.5-1.8 4.5-.7 7.3-1.2 20-3.6 16.1-3 16.4-3 15.4-2.1-.7.8-45.3 34.4-55 41.6-1.5 1.1-4.2 3.1-6 4.5-1.7 1.4-4.3 3.3-5.6 4.2-1.2.9-3.2 2.4-4.3 3.3-1.1.8-6 4.6-11 8.3-5.4 4.1-9.7 8.2-10.7 10.3-3.5 6.7-.2 17.5 6.5 21.1 1.2.6 5.4 1.3 9.2 1.4 3.9.2 7.2.4 7.5.5.3.1.9 0 1.5-.1.5-.1 3.2-.1 6-.1h94c7.1 0 7.7 0 12.9.1 2.6.1 5-.1 5.3-.4.2-.2 1.8 0 3.4.4 1.6.5 3.1.5 3.3.1.2-.3 3.4-.4 7-.1 3.6.3 6.6.3 6.6 0 0-.6 12.9-.2 14.8.5.6.2 1.2.1 1.2-.3 0-.7 12.6-.5 14.8.3.6.2 1.2.1 1.2-.3 0-.7 12.6-.5 14.8.3.6.2 1.2.1 1.2-.3s1.9-.6 4.2-.5c8.1.3 10.3.3 16 .2l5.7-.2-1.9-5.1c-2-5.4-4.3-13.2-6.6-23.1-2-8.3-2.2-9.4-2.9-14.5-.3-2.5-.8-5.1-1-5.8-.9-2.4-1.9-17.4-2-27.4 0-5.4-.4-9.8-.8-9.8-.5 0-.5-.4-.2-1 .3-.5.5-3.8.5-7.2 0-3.5-.1-7.2 0-8.3 0-1.1-.1-4.3-.1-7-.1-2.8-.1-5.7 0-6.5.5-5.8-.1-9.6-1.7-10.8-.9-.7-2.7-2.2-4-3.2-1.2-1.1-2.5-2-2.7-2-.3 0-1.1-.5-1.8-1-2.5-2.1-17.6-13.2-39.7-29.3-7.4-5.4-14.2-10.3-15-11-.8-.7-5.6-4.1-10.5-7.7-5-3.5-9.4-6.8-10-7.2-.5-.5-3.5-2.6-6.5-4.8-3-2.2-5.9-4.3-6.5-4.8-.5-.4-2.5-1.9-4.4-3.2-1.9-1.4-4.2-3-5-3.7-12.5-9.5-20.9-14.3-29.1-16.8-6.5-1.9-22.5-2.7-29.2-1.5z"/></svg>